<?xml version="1.0" encoding="utf-8"?>
<svg version="1.1" xmlns:xlink="http://www.w3.org/1999/xlink" width="7px" height="5px" xmlns="http://www.w3.org/2000/svg">
  <g transform="matrix(1 0 0 1 -108 -14 )">
    <path d="M 6.92985971943888 0.515463917525773  C 6.97661990647963 0.572737686139747  7 0.638602520045818  7 0.713058419243986  C 7 0.787514318442153  6.97661990647963 0.853379152348224  6.92985971943888 0.910652920962199  L 3.66132264529058 4.91408934707904  C 3.61456245824983 4.97136311569301  3.56078824315297 5  3.5 5  C 3.43921175684703 5  3.38543754175017 4.97136311569301  3.33867735470942 4.91408934707904  L 0.0701402805611222 0.910652920962199  C 0.0233800935203742 0.853379152348224  0 0.787514318442153  0 0.713058419243986  C 0 0.638602520045818  0.0233800935203742 0.572737686139747  0.0701402805611222 0.515463917525773  L 0.420841683366733 0.0859106529209624  C 0.467601870407482 0.0286368843069867  0.521376085504342 0  0.582164328657315 0  C 0.642952571810287 0  0.696726786907148 0.0286368843069867  0.743486973947896 0.0859106529209624  L 3.5 3.46219931271478  L 6.2565130260521 0.0859106529209624  C 6.30327321309285 0.0286368843069867  6.35704742818971 0  6.41783567134268 0  C 6.47862391449566 0  6.53239812959252 0.0286368843069867  6.57915831663327 0.0859106529209624  L 6.92985971943888 0.515463917525773  Z " fill-rule="nonzero" fill="#ffffff" stroke="none" transform="matrix(1 0 0 1 108 14 )" />
  </g>
</svg>