<?xml version="1.0" encoding="utf-8"?>
<svg version="1.1" xmlns:xlink="http://www.w3.org/1999/xlink" width="35px" height="26px" xmlns="http://www.w3.org/2000/svg">
  <g transform="matrix(1 0 0 1 -40 -5 )">
    <path d="M 34.3677419354839 3.58922558922559  C 34.789247311828 3.99775533108866  35 4.49382716049383  35 5.07744107744108  C 35 5.66105499438832  34.789247311828 6.15712682379349  34.3677419354839 6.56565656565656  L 18.0193548387097 22.4107744107744  L 14.9483870967742 25.3872053872054  C 14.5268817204301 25.7957351290685  14.0150537634409 26  13.4129032258065 26  C 12.810752688172 26  12.2989247311828 25.7957351290685  11.8774193548387 25.3872053872054  L 8.80645161290322 22.4107744107744  L 0.632258064516129 14.4882154882155  C 0.210752688172043 14.0796857463524  0 13.5836139169472  0 13  C 0 12.4163860830527  0.210752688172043 11.9203142536476  0.632258064516129 11.5117845117845  L 3.70322580645161 8.53535353535354  C 4.1247311827957 8.12682379349046  4.63655913978495 7.92255892255892  5.23870967741936 7.92255892255892  C 5.84086021505377 7.92255892255892  6.35268817204301 8.12682379349046  6.7741935483871 8.53535353535354  L 13.4129032258065 14.9915824915825  L 28.2258064516129 0.612794612794613  C 28.647311827957 0.204264870931537  29.1591397849462 0  29.7612903225806 0  C 30.3634408602151 0  30.8752688172043 0.204264870931537  31.2967741935484 0.612794612794613  L 34.3677419354839 3.58922558922559  Z " fill-rule="nonzero" fill="#555555" stroke="none" transform="matrix(1 0 0 1 40 5 )" />
  </g>
</svg>