<?xml version="1.0" encoding="utf-8"?>
<svg version="1.1" xmlns:xlink="http://www.w3.org/1999/xlink" width="268px" height="284px" xmlns="http://www.w3.org/2000/svg">
  <g>
    <path d="M 0 0  L 268 0  L 268 284  L 0 284  L 0 0  " fill-rule="nonzero" fill="#cccccc" stroke="none" />
    <path d="M 19 19  L 249 19  L 249 265  L 19 265  L 19 19  " fill-rule="nonzero" fill="#ffffff" stroke="none" />
    <path d="M 159.46 82.8  C 148.204 82.8  139.36 73.956  139.36 62.7  C 139.36 51.444  148.204 42.6  159.46 42.6  C 170.716 42.6  179.56 51.444  179.56 62.7  C 179.56 73.956  170.716 82.8  159.46 82.8  " fill-rule="nonzero" fill="#cccccc" stroke="none" />
    <path d="M 26 259  L 26 130.85  L 80.25 72.6  L 156.2 119.2  L 199.6 107.55  L 243 119.2  L 243 259  L 26 259  " fill-rule="nonzero" fill="#169bd5" stroke="none" />
  </g>
</svg>