<?xml version="1.0" encoding="utf-8"?>
<svg version="1.1" xmlns:xlink="http://www.w3.org/1999/xlink" width="35px" height="35px" xmlns="http://www.w3.org/2000/svg">
  <g transform="matrix(1 0 0 1 -216 -1058 )">
    <path d="M 28.7337239583333 19.9837239583333  C 29.0223524305556 19.6950954861111  29.1666666666667 19.3532986111111  29.1666666666667 18.9583333333333  L 29.1666666666667 16.0416666666667  C 29.1666666666667 15.6467013888889  29.0223524305556 15.3049045138889  28.7337239583333 15.0162760416667  C 28.4450954861111 14.7276475694444  28.1032986111111 14.5833333333333  27.7083333333333 15  L 16.26953125 15  L 20.576171875 10.2766927083333  C 20.8648003472222 9.98806423611111  21.0091145833333 9.64626736111111  21.0091145833333 9.25130208333333  C 21.0091145833333 8.85633680555555  20.8648003472222 8.51453993055555  20.576171875 8.22591145833333  L 18.5026041666667 6.15234375  C 18.2291666666667 5.87890625  17.8873697916667 5.7421875  17.4772135416667 5.7421875  C 17.0670572916667 5.7421875  16.7252604166667 5.87890625  16.4518229166667 6.15234375  L 8.203125 14.4010416666667  L 6.12955729166667 16.474609375  C 5.85611979166667 16.748046875  5.71940104166667 17.08984375  5.71940104166667 17.5  C 5.71940104166667 17.91015625  5.85611979166667 18.251953125  6.12955729166667 18.525390625  L 8.203125 20.5989583333333  L 16.4518229166667 28.84765625  C 16.7252604166667 29.12109375  17.0670572916667 29.2578125  17.4772135416667 29.2578125  C 17.8873697916667 29.2578125  18.2291666666667 29.12109375  18.5026041666667 28.84765625  L 20.576171875 26.7740885416667  C 20.849609375 26.5006510416667  20.986328125 26.1588541666667  20.986328125 25.7486979166667  C 20.986328125 25.3385416666667  20.849609375 24.9967447916667  20.576171875 24.7233072916667  L 16.26953125 20  L 27.7083333333333 20  C 28.1032986111111 20.4166666666667  28.4450954861111 20.2723524305556  28.7337239583333 19.9837239583333  Z M 32.6529947916667 8.7158203125  C 34.2176649305556 11.3970269097222  35 14.3250868055556  35 17.5  C 35 20.6749131944444  34.2176649305556 23.6029730902778  32.6529947916667 26.2841796875  C 31.0883246527778 28.9653862847222  28.9653862847222 31.0883246527778  26.2841796875 32.6529947916667  C 23.6029730902778 34.2176649305556  20.6749131944444 35  17.5 35  C 14.3250868055556 35  11.3970269097222 34.2176649305556  8.7158203125 32.6529947916667  C 6.03461371527778 31.0883246527778  3.91167534722222 28.9653862847222  2.34700520833333 26.2841796875  C 0.782335069444444 23.6029730902778  0 20.6749131944444  0 17.5  C 0 14.3250868055556  0.782335069444444 11.3970269097222  2.34700520833333 8.7158203125  C 3.91167534722222 6.03461371527778  6.03461371527778 3.91167534722222  8.7158203125 2.34700520833333  C 11.3970269097222 0.782335069444441  14.3250868055556 0  17.5 0  C 20.6749131944444 0  23.6029730902778 0.782335069444441  26.2841796875 2.34700520833333  C 28.9653862847222 3.91167534722222  31.0883246527778 6.03461371527778  32.6529947916667 8.7158203125  Z " fill-rule="nonzero" fill="#7f7f7f" stroke="none" transform="matrix(1 0 0 1 216 1058 )" />
  </g>
</svg>