<?xml version="1.0" encoding="utf-8"?>
<svg version="1.1" xmlns:xlink="http://www.w3.org/1999/xlink" width="35px" height="35px" xmlns="http://www.w3.org/2000/svg">
  <g transform="matrix(1 0 0 1 -278 -1058 )">
    <path d="M 28.8704427083333 18.525390625  C 29.1438802083333 18.251953125  29.2805989583333 17.91015625  29.2805989583333 17.5  C 29.2805989583333 17.08984375  29.1438802083333 16.748046875  28.8704427083333 16.474609375  L 26.796875 14.4010416666667  L 18.5481770833333 6.15234375  C 18.2747395833333 5.87890625  17.9329427083333 5.7421875  17.5227864583333 5.7421875  C 17.1126302083333 5.7421875  16.7708333333333 5.87890625  16.4973958333333 6.15234375  L 14.423828125 8.22591145833333  C 14.150390625 8.49934895833333  14.013671875 8.84114583333333  14.013671875 9.25130208333333  C 14.013671875 9.66145833333333  14.150390625 10.0032552083333  14.423828125 10.2766927083333  L 18.73046875 15  L 7.29166666666667 15  C 6.89670138888889 14.5833333333333  6.55490451388889 14.7276475694444  6.26627604166667 15.0162760416667  C 5.97764756944445 15.3049045138889  5.83333333333333 15.6467013888889  5.83333333333333 16.0416666666667  L 5.83333333333333 18.9583333333333  C 5.83333333333333 19.3532986111111  5.97764756944445 19.6950954861111  6.26627604166667 19.9837239583333  C 6.55490451388889 20.2723524305556  6.89670138888889 20.4166666666667  7.29166666666667 20  L 18.73046875 20  L 14.423828125 24.7233072916667  C 14.1351996527778 25.0119357638889  13.9908854166667 25.3537326388889  13.9908854166667 25.7486979166667  C 13.9908854166667 26.1436631944444  14.1351996527778 26.4854600694444  14.423828125 26.7740885416667  L 16.4973958333333 28.84765625  C 16.7708333333333 29.12109375  17.1126302083333 29.2578125  17.5227864583333 29.2578125  C 17.9329427083333 29.2578125  18.2747395833333 29.12109375  18.5481770833333 28.84765625  L 26.796875 20.5989583333333  L 28.8704427083333 18.525390625  Z M 32.6529947916667 8.7158203125  C 34.2176649305556 11.3970269097222  35 14.3250868055556  35 17.5  C 35 20.6749131944444  34.2176649305556 23.6029730902778  32.6529947916667 26.2841796875  C 31.0883246527778 28.9653862847222  28.9653862847222 31.0883246527778  26.2841796875 32.6529947916667  C 23.6029730902778 34.2176649305556  20.6749131944444 35  17.5 35  C 14.3250868055556 35  11.3970269097222 34.2176649305556  8.7158203125 32.6529947916667  C 6.03461371527778 31.0883246527778  3.91167534722222 28.9653862847222  2.34700520833333 26.2841796875  C 0.782335069444444 23.6029730902778  0 20.6749131944444  0 17.5  C 0 14.3250868055556  0.782335069444444 11.3970269097222  2.34700520833333 8.7158203125  C 3.91167534722222 6.03461371527778  6.03461371527778 3.91167534722222  8.7158203125 2.34700520833333  C 11.3970269097222 0.782335069444441  14.3250868055556 0  17.5 0  C 20.6749131944444 0  23.6029730902778 0.782335069444441  26.2841796875 2.34700520833333  C 28.9653862847222 3.91167534722222  31.0883246527778 6.03461371527778  32.6529947916667 8.7158203125  Z " fill-rule="nonzero" fill="#7f7f7f" stroke="none" transform="matrix(1 0 0 1 278 1058 )" />
  </g>
</svg>